<?xml version="1.0" encoding="UTF-8" standalone="no"?>
<!DOCTYPE svg PUBLIC "-//W3C//DTD SVG 1.1//EN" "http://www.w3.org/Graphics/SVG/1.1/DTD/svg11.dtd">
<svg width="100%" height="100%" viewBox="0 0 2800 446" version="1.1" xmlns="http://www.w3.org/2000/svg" xmlns:xlink="http://www.w3.org/1999/xlink" xml:space="preserve" xmlns:serif="http://www.serif.com/" style="fill-rule:evenodd;clip-rule:evenodd;stroke-linejoin:round;stroke-miterlimit:2;">
    <g transform="matrix(1,0,0,1,-25,-677.242368)">
        <g transform="matrix(10.538255,0,0,10.538255,-4119.594049,-1323.63509)">
            <path d="M428.706,200.634C428.279,200.202 427.834,200.208 427.308,200.395C427.883,201.111 427.886,201.112 428.706,200.634ZM447.122,199.125C446.992,199.218 446.996,199.366 447.13,199.453C447.263,199.54 447.835,199.778 448.058,199.828L448.266,199.846C448.324,199.852 448.424,199.78 448.451,199.726C448.481,199.666 448.486,199.548 448.44,199.52L448.14,199.328C447.788,199.146 447.251,199.032 447.122,199.125ZM544.633,192.346C544.982,192.63 545.366,192.457 545.485,191.96L544.885,191.73L544.747,191.678C544.454,191.854 544.261,192.039 544.317,192.089L544.348,192.114L544.633,192.346ZM624.346,216.556C624.694,216.536 624.81,216.411 624.603,216.276C624.396,216.143 623.636,216.269 623.354,216.313C623.073,216.356 623.997,216.575 624.346,216.556ZM628.322,219.915C628.365,219.958 628.268,220.088 628.104,220.204C627.942,220.319 627.902,220.669 628.152,220.568L628.365,220.486L628.623,220.387C628.969,220.303 629.088,220.101 628.889,219.937L628.715,219.8C628.654,219.751 628.583,219.672 628.518,219.674L628.401,219.676C628.272,219.721 628.279,219.872 628.322,219.915ZM457.779,227.398C457.497,227.398 457.334,227.537 457.418,227.706C457.502,227.875 457.933,228.201 458.214,228.108C458.495,228.016 458.063,227.398 457.779,227.398ZM555.52,191.982C555.267,191.982 555.318,192.198 555.636,192.461L555.968,192.559L556.068,192.589C556.387,192.255 555.773,191.982 555.52,191.982ZM593.046,191.91C593.3,192.052 593.501,192.095 593.493,192.004C593.486,191.914 593.545,191.649 593.582,191.575C593.618,191.5 593.502,191.239 593.203,191.224C592.903,191.209 592.792,191.768 593.046,191.91ZM626.305,195.982C625.988,195.739 625.972,195.679 626.268,195.848C626.564,196.018 627.502,196.268 627.582,196.213C627.662,196.159 627.54,195.848 627.092,195.683L626.851,195.774L626.305,195.982ZM586.61,191.484C586.754,191.281 586.662,191.202 586.406,191.31C586.15,191.417 585.51,191.335 585.4,191.417L585.401,191.491C585.401,191.646 585.264,191.86 585.601,191.933L585.782,191.972C585.99,192.055 586.467,191.688 586.61,191.484ZM621.521,216.178C621.598,216.038 621.387,215.892 621.052,215.854L620.852,215.941L620.627,216.039C620.471,216.272 620.429,216.585 620.533,216.734L620.659,216.748L620.834,216.766C621.035,216.674 621.445,216.318 621.521,216.178ZM419.822,227.026C419.944,226.802 420.009,226.441 419.965,226.225L419.6,226.305C419.478,226.333 419.327,226.606 419.256,226.356C419.173,226.071 419.078,225.951 418.77,226.125L418.719,226.153C418.833,226.373 419.1,226.681 419.313,226.837L419.542,226.922L419.822,227.026ZM511.587,192.69C510.961,192.645 510.641,192.826 510.875,193.093L511.242,193.023C511.597,192.955 511.94,192.841 512.275,192.722C512.318,192.707 512.301,192.533 512.267,192.444C512.25,192.404 512.086,192.354 512.056,192.375L511.587,192.69ZM476.079,193.952C476.098,194.086 476.266,194.039 476.452,193.848C476.64,193.656 476.7,193.06 476.448,193.109C476.197,193.159 475.595,193.347 475.581,193.398C475.567,193.449 475.604,193.582 475.691,193.572C475.778,193.562 476.062,193.818 476.079,193.952ZM551.851,192.209C552.138,192.352 552.163,192.347 551.907,192.196C551.65,192.046 551.071,191.573 550.989,191.736C550.908,191.898 551.029,192.409 551.418,192.555L551.504,192.487L551.851,192.209ZM456.591,194.41C456.567,194.556 456.735,194.603 456.963,194.513C457.191,194.423 457.767,194.1 457.852,193.972L457.698,193.81C457.587,193.69 457.677,193.419 457.345,193.476L457.03,193.53C456.829,193.761 456.614,194.264 456.591,194.41ZM423.592,198.798C423.553,198.652 423.39,198.527 423.229,198.52C423.068,198.512 422.737,198.632 422.501,198.749C422.266,198.866 421.952,199.451 421.962,199.533L422.014,199.574L422.065,199.616C422.163,199.623 422.642,199.39 423.128,199.1L423.557,198.821L423.592,198.798ZM458.969,193.736C458.647,193.876 458.796,194.09 459.298,194.21L459.646,194.322C459.992,194.432 460.127,194.215 460.29,194.068C460.356,194.008 460.352,193.872 460.329,193.779C460.313,193.708 459.335,193.58 459.229,193.625L458.969,193.736ZM654.404,222.71C654.478,222.467 654.256,222.361 653.908,222.474L653.629,222.611C653.407,222.72 653.207,222.871 653.564,223.078L653.659,223.134C653.697,223.356 654.329,222.954 654.404,222.71ZM607.931,191.585C608.296,191.506 608.548,191.32 608.49,191.171C608.434,191.022 607.816,190.799 607.653,190.864C607.49,190.929 607.566,191.664 607.931,191.585ZM613.525,191.554C613.695,191.689 614,191.616 614.203,191.392L614.26,191.209C614.301,191.078 614.213,190.895 614.119,190.766C613.996,190.599 613.812,190.527 613.568,190.681L613.385,190.796C613.087,190.915 613.355,191.418 613.525,191.554ZM559.96,230.129C559.807,230.061 559.681,230.124 559.681,230.271C559.681,230.417 559.609,230.775 559.522,230.766C559.436,230.757 559.137,230.803 559.142,230.898C559.146,230.994 559.182,231.254 559.197,231.268C559.214,231.282 559.826,231.216 560.52,231.089L560.482,230.84L560.458,230.677C560.465,230.502 560.113,230.198 559.96,230.129ZM625.659,217.616C625.538,217.714 625.655,217.759 625.918,217.715C626.182,217.671 626.886,218.109 627.176,218.1C627.466,218.09 627.555,217.496 627.237,217.468C626.92,217.439 625.78,217.518 625.659,217.616ZM434.306,195.663C434.647,195.748 434.924,195.766 434.918,195.703C434.912,195.64 434.986,195.35 435.052,195.218C435.118,195.086 434.907,194.956 434.701,195.104L434.351,194.901C434.031,194.718 433.928,195.119 433.713,195.239C433.489,195.364 433.531,195.529 433.719,195.681C433.869,195.803 433.961,195.934 434.211,195.737L434.306,195.663ZM651.333,221.173C651.507,221.273 651.692,221.227 651.744,221.071C651.797,220.915 651.445,220.4 651.367,220.259L651.141,220.445L650.718,220.791C650.349,220.711 649.956,220.649 649.845,220.653L649.805,220.697C649.768,220.738 649.781,220.865 649.828,220.893C650.063,221.033 650.318,221.152 650.562,221.283L650.633,221.32C650.698,221.374 651.159,221.073 651.333,221.173ZM631.633,195.634C631.621,195.438 631.553,195.382 631.48,195.51C631.408,195.637 631.091,195.814 630.892,195.696C630.692,195.578 630.012,195.517 630.085,195.583C630.158,195.649 630.205,195.828 630.098,195.898C629.99,195.967 629.924,196.18 630.444,196.05L630.671,196.137L630.995,196.261C631.365,196.248 631.644,195.829 631.633,195.634ZM440.094,195.25C440.259,194.951 439.989,194.718 439.495,194.732L439.174,194.411C438.985,194.514 438.795,194.711 438.752,194.848C438.708,194.985 439.331,195.265 439.513,195.305L439.513,195.342C439.514,195.683 439.646,195.755 439.901,195.467L440.094,195.25ZM430.59,200.246C430.579,200.415 430.423,200.478 430.243,200.385C430.063,200.292 430.185,200.723 430.622,200.705L431.008,200.745L431.745,200.821C432.006,200.47 432.03,200.223 431.798,200.273C431.566,200.324 430.922,200.187 430.886,200.071C430.85,199.956 430.74,199.676 430.715,199.679C430.69,199.683 430.601,200.076 430.59,200.246ZM651.077,225.588C651.203,225.616 651.475,225.401 651.681,225.11C651.887,224.818 651.244,224.12 651.345,224.062L651.34,224.015L651.314,223.783C651.009,223.701 650.714,223.695 650.66,223.771C650.606,223.847 650.8,224.182 650.874,224.318C650.948,224.454 650.83,224.848 650.956,225.004C651.083,225.16 650.95,225.559 651.077,225.588ZM647.761,201.381C647.838,201.308 647.762,200.916 647.59,200.509L646.875,200.5L646.201,200.492C645.888,200.887 645.821,201.393 646.054,201.615L646.167,201.591L646.467,201.529C646.767,201.359 647.082,201.279 647.169,201.35C647.256,201.42 647.683,201.454 647.761,201.381ZM642.969,198.493C643.177,198.203 643.035,197.851 642.655,197.712L642.335,197.661L641.86,197.584C641.326,197.55 641.046,197.636 641.236,197.774C641.428,197.913 642.761,198.784 642.969,198.493ZM452.969,193.69C453.019,193.569 453.092,193.43 453.133,193.382C453.174,193.334 453.574,193.382 453.973,193.478L454.44,193.109L454.646,192.947C454.852,193.023 455.245,193.085 455.521,193.084C455.797,193.084 456.747,192.613 456.795,192.637L456.8,192.664L456.835,192.836C456.862,193.026 457.168,193.067 457.513,192.928C457.858,192.788 459.193,193.028 459.622,193.061C460.051,193.093 461.262,192.626 461.515,192.654C461.768,192.682 462.424,192.936 462.626,192.968C462.829,193 463.385,192.718 463.528,192.672C463.673,192.627 464.023,192.635 464.028,192.423C464.033,192.21 464.822,192.571 465.062,192.565L465.223,192.475C465.632,192.246 465.688,192.375 465.815,192.7L465.911,192.945C466.169,192.642 466.514,192.474 466.677,192.572C466.841,192.67 467.581,192.705 467.939,192.627L468.198,192.47L468.435,192.326C468.68,192.354 469.02,192.412 469.19,192.454L469.288,192.537C469.461,192.682 469.572,192.875 469.745,193.02L469.783,193.052C469.952,192.987 470.072,192.828 470.05,192.698C470.027,192.568 470.536,192.348 470.915,192.272L471.227,192.5L471.304,192.556C471.655,192.729 472.119,192.743 472.334,192.588L472.55,192.485L472.676,192.425C472.857,192.42 472.996,192.528 472.983,192.666L472.971,192.792L472.963,192.869C472.952,192.955 473.075,193.019 473.236,193.012L473.3,192.95C473.429,192.821 473.481,192.642 473.602,192.506L473.753,192.334C473.975,192.407 474.268,192.444 474.403,192.417C474.54,192.389 475.233,192.448 475.73,192.834L476.393,192.445C476.489,192.388 476.792,192.407 476.831,192.464L477.107,192.879C477.481,192.705 477.877,192.47 477.987,192.357C478.098,192.244 478.521,192.028 478.612,192.199C478.703,192.371 479.153,192.727 479.37,192.537L479.593,192.487L479.979,192.399C480.437,192.378 480.866,192.355 480.934,192.349C481.001,192.341 481.405,192.237 481.701,192.176C481.998,192.115 483.09,192.507 483.2,192.375L483.339,192.294L483.464,192.222C483.646,192.191 483.724,192.263 483.637,192.381L483.657,192.475C483.677,192.563 483.82,192.642 483.925,192.709L484.171,192.868C484.209,192.677 484.291,192.43 484.354,192.319C484.418,192.208 484.958,192.019 485.446,192.081L485.857,192.157L485.944,192.174C486.03,192.281 486.067,192.366 486.027,192.362C485.988,192.358 485.849,192.604 485.733,192.887C485.619,193.171 484.563,193.07 484.482,193.111L484.458,193.167L484.431,193.228C484.453,193.31 484.899,193.601 485.423,193.874L486.032,193.621L486.289,193.514C486.612,193.439 486.611,193.3 486.288,193.205C485.965,193.109 486.354,192.265 486.665,192.138L487.043,192.13C487.735,192.117 488.445,192.284 489.135,192C489.322,191.924 489.728,192.032 489.913,192.166L490.1,192.301C490.185,192.584 490.339,192.681 490.44,192.516C490.543,192.352 491.055,191.953 491.357,191.985C491.661,192.018 492.619,191.921 492.849,191.621L493.104,191.814L493.17,191.865C493.235,191.923 493.418,192.136 493.575,192.338L493.91,192.157L494.004,192.106C494.21,192.129 494.403,192.248 494.434,192.37C494.463,192.491 494.641,192.816 494.71,192.619L494.73,192.52C494.745,192.449 494.704,192.362 494.738,192.302C494.867,192.081 495.039,192.118 495.258,192.239C495.788,192.531 495.382,191.961 495.638,191.956L495.796,191.953C495.977,191.888 496.375,191.911 496.681,192.003L496.951,191.787C497.027,191.727 497.263,191.686 497.3,191.721L497.894,192.294C498.269,191.841 498.791,191.643 499.055,191.853C499.318,192.063 500.478,191.832 500.679,191.957C500.88,192.083 501.79,191.737 502.24,191.771L502.621,191.578L502.677,191.549C502.801,191.6 503.227,191.715 503.625,191.806L504.265,191.703L504.72,191.63C504.789,191.899 505.014,192.007 505.221,191.87C505.427,191.733 506.22,191.917 506.332,191.916C506.444,191.915 506.862,191.738 507.185,191.622L507.543,191.7L507.951,191.788C508.42,191.744 508.857,191.762 508.924,191.826C508.99,191.891 509.196,191.899 509.328,191.792C509.46,191.685 510.061,191.364 510.165,191.485C510.269,191.606 510.627,191.894 510.82,191.945C511.014,191.996 511.84,191.9 512.229,191.755C512.617,191.61 513.664,191.754 513.875,191.756C514.086,191.758 514.727,191.583 514.899,191.657C515.072,191.731 515.615,191.921 515.716,191.911L515.771,191.87L516.081,191.632C516.498,191.667 516.935,191.693 517.052,191.69C517.169,191.688 517.687,191.583 517.984,191.555C518.283,191.527 518.955,191.601 518.995,191.223L519.583,191.558L519.685,191.617C519.805,191.662 520.127,191.691 520.403,191.682C520.679,191.673 521.607,191.763 521.888,191.623C522.168,191.481 523.115,191.318 523.305,191.319L523.414,191.389C523.655,191.542 523.82,191.749 524.203,191.719L524.53,191.694C524.691,191.504 524.925,191.319 525.049,191.283L525.173,191.271L525.55,191.235C525.947,191.138 526.524,190.987 526.833,190.899L527.055,191.233C527.275,191.567 527.673,191.594 528.057,191.348L529.888,191.138L530.423,191.183C531.011,191.23 531.659,191.248 531.863,191.223C532.068,191.197 532.551,191.503 532.581,191.352C532.61,191.201 532.828,191.073 533.015,191.324C533.201,191.575 534.457,191.292 534.9,191.306C535.344,191.321 536.573,191.066 536.685,191.028L536.723,191.054L537.447,191.542C538.371,191.457 539.201,191.414 539.293,191.446L539.312,191.429C539.57,191.188 539.789,191.043 540.244,191.242L540.459,191.335C540.841,191.208 541.467,191.06 541.849,191.004L542.188,190.997L542.662,190.986C543.17,191.023 543.667,191.12 543.765,191.2C543.863,191.28 544.171,191.436 544.212,191.354C544.254,191.272 544.563,191.051 544.822,191.014C545.082,190.978 545.94,190.949 546.121,191.046L546.116,191.146L546.098,191.582C546.445,191.519 547.026,191.383 547.389,191.28L547.755,191.475C547.913,191.559 548.286,191.565 548.402,191.474C548.706,191.234 549.049,191.301 549.389,191.261L549.717,191.224C550.068,191.132 550.495,191.018 550.664,190.969C550.834,190.92 551.345,191.207 551.619,191.166C551.893,191.125 552.739,191.055 552.887,191.054C553.034,191.052 553.39,190.888 553.478,190.958C553.565,191.029 554.245,191.449 554.794,191.735L554.852,190.92C554.853,190.904 555.163,190.857 555.291,190.899L556.052,191.155C556.409,191.05 557.325,190.929 558.087,190.884L558.84,190.884C558.923,191.125 559.643,191.193 560.44,191.035L561.187,191.072C561.373,191.081 561.342,191.369 561.117,191.484L561.018,191.536C560.843,191.559 560.823,191.628 560.975,191.688C561.126,191.75 561.554,191.767 561.554,191.579C561.554,191.39 561.787,190.785 562.072,190.743C562.357,190.701 563.358,190.982 563.684,190.93L563.99,190.931C564.33,190.933 564.708,190.943 565,191.063L565.505,191.269C565.98,191.106 566.55,190.888 566.771,190.783C566.991,190.679 567.344,191.197 567.384,191.202C567.424,191.207 567.644,191.094 567.832,190.985L568.055,191.141C568.393,191.378 568.592,191.359 568.629,190.941L568.639,190.832C568.844,190.716 569.115,190.766 569.241,190.943C569.367,191.12 570.131,191.006 570.544,190.982C570.958,190.958 572.179,190.88 572.356,190.904L572.437,190.71C572.456,190.661 572.802,190.623 572.863,190.678C573.011,190.813 572.936,191.185 573.324,191.026L573.478,190.964C573.53,190.664 573.949,190.574 574.41,190.765L574.838,190.94C574.934,190.979 575.985,190.878 576.063,190.817C576.353,190.591 576.634,190.358 576.736,190.924L576.742,190.959C576.831,190.986 577.063,191.039 577.258,191.078C577.453,191.116 578.035,191.202 578.103,191.13C578.171,191.058 578.379,190.819 578.412,190.774C578.445,190.728 578.753,190.564 579.022,190.512C579.292,190.459 580.044,190.678 580.079,190.623C580.115,190.568 580.543,190.52 580.686,190.635C580.828,190.75 581.403,191.052 581.536,190.959C581.67,190.866 582.094,190.688 582.191,190.763C582.29,190.838 582.632,190.982 582.655,190.859C582.68,190.736 582.905,190.591 583.108,190.796L583.299,190.808L583.687,190.831C583.813,191.074 584.034,191.139 584.177,190.976C584.319,190.813 584.762,190.412 584.8,190.498C584.838,190.583 585.061,190.743 585.218,190.677C585.375,190.611 585.859,190.483 585.898,190.559L585.929,190.644C586.021,190.896 586.356,190.901 586.395,190.753C586.525,190.251 586.861,190.272 587.242,190.481L587.544,190.647C587.837,190.571 588.369,190.421 588.726,190.314L589.001,190.577C589.304,190.867 589.629,190.943 590.028,190.698C590.062,190.677 590.205,190.729 590.256,190.777L590.582,191.086C590.703,190.964 590.894,190.754 591.007,190.62L591.107,190.621L591.542,190.624C592.014,190.682 592.462,190.724 592.538,190.717C592.614,190.711 592.951,190.609 593.144,190.574C593.337,190.538 594.069,190.936 594.312,190.81C594.556,190.684 595.266,190.538 595.365,190.758C595.465,190.979 596.411,190.583 596.821,190.55C597.231,190.517 598.319,190.781 598.346,190.653C598.371,190.525 598.525,190.198 598.609,190.312L598.647,190.377L598.683,190.438C598.712,190.509 599.01,190.589 599.347,190.614C599.683,190.64 600.403,190.931 600.233,191.057C600.062,191.183 597.792,191.228 597.321,191.311C596.852,191.394 596.888,191.65 597.181,191.563L597.479,191.665L597.51,191.675C597.595,191.59 597.885,191.418 598.154,191.294C598.424,191.17 598.801,191.872 598.914,191.903C599.027,191.934 599.174,191.664 599.161,191.541L599.195,191.44C599.328,191.042 599.299,191.122 598.993,191.028L598.619,190.913C598.272,191 597.936,191.106 597.873,191.148L597.807,191.182L597.454,191.364C597.852,191.251 598.49,191.333 598.873,191.545C599.256,191.758 600.103,191.803 600.333,191.748C600.562,191.692 601.388,191.841 601.598,191.773C601.807,191.705 601.791,191.269 601.725,191.173C601.657,191.078 601.336,190.828 601.165,190.828C600.994,190.828 600.742,190.744 600.985,190.642C601.227,190.539 601.884,190.18 601.927,190.107C601.969,190.034 602.46,190.068 602.531,190.116C602.603,190.165 602.923,190.495 603.071,190.659C603.22,190.824 604.053,191.176 604.121,191.25C604.19,191.324 604.294,190.997 604.262,190.871L604.177,190.837L603.88,190.716C603.554,190.622 603.362,190.418 603.455,190.263L603.407,190.206C603.288,190.063 603.229,189.893 603.482,189.967L603.895,190.089C604.351,190.146 604.956,190.252 605.239,190.328C605.523,190.403 606.696,190.124 606.862,190.066C607.029,190.009 607.397,189.946 607.628,189.868L607.847,189.946C607.884,189.959 607.958,189.932 607.977,189.95L608.126,190.092C608.282,190.255 608.506,190.299 608.625,190.19C608.744,190.081 609.184,190.092 609.393,190.188C609.602,190.283 610.39,190.089 610.703,190.245L610.966,190.411C610.998,190.432 610.861,190.604 610.842,190.711L610.824,190.808C610.852,190.921 610.958,190.85 611.06,190.649C611.162,190.449 611.829,190.277 611.799,190.22C611.769,190.163 611.861,189.983 612.085,189.975C612.308,189.967 613.222,190.25 613.597,190.375C613.973,190.499 615.062,190.219 615.14,190.236C615.218,190.254 615.395,190.357 615.357,190.421C615.318,190.484 615.065,190.665 614.934,190.741C614.802,190.817 615.138,191.511 615.709,191.592L615.935,191.155L616.115,190.808C615.783,190.356 615.822,189.94 616.201,189.883L616.313,189.963C616.54,190.125 616.602,190.434 616.996,190.457C617.003,190.457 617.006,190.505 617.01,190.531C617.083,191.031 617.086,191.016 617.681,191.092L617.983,191.13C618.378,191.248 618.7,191.158 618.7,190.932C618.7,190.705 618.84,190.163 619.011,190.139L619.055,190.173L619.279,190.35C619.509,190.563 619.507,190.77 619.275,190.811C619.044,190.853 619.103,191.407 619.283,191.431C619.463,191.455 619.962,191.096 620.042,191.173C620.123,191.25 620.406,191.436 620.497,191.42L620.547,191.392L620.62,191.35C620.686,191.289 620.842,191.174 620.965,191.094C621.088,191.014 621.606,191.42 621.709,191.291C621.81,191.161 622.189,190.936 622.373,191.016C622.558,191.095 623.163,191.217 623.288,191.163C623.414,191.109 623.733,190.871 623.771,191.01C623.81,191.149 624.032,191.487 624.187,191.474L624.29,191.428L624.95,191.126C625.556,191.411 626.129,191.688 626.226,191.74C626.321,191.793 626.602,191.901 626.633,191.867C626.664,191.833 626.73,191.612 626.777,191.453C626.823,191.295 627.4,191.403 627.555,191.46C627.709,191.517 628.123,191.485 628.138,191.588C628.152,191.692 628.705,191.535 628.882,191.405C629.059,191.275 629.828,191.181 629.934,191.091L630.042,191.012C630.105,190.965 630.243,190.896 630.257,190.907L630.897,191.452C630.966,190.988 631.281,190.673 631.6,190.752C631.917,190.831 632.372,191.526 632.406,191.428C632.44,191.329 632.551,191.096 632.602,191.055L632.602,191.056C632.829,191.231 633.08,191.394 633.259,191.599C633.312,191.661 633.143,191.836 633.114,191.965L633.089,192.086C633.103,192.226 633.248,192.352 633.408,192.367L633.475,192.314C633.881,191.994 634.061,192.099 634.155,192.505L634.16,192.53C634.399,192.518 634.602,192.417 634.609,192.306C634.618,192.195 634.622,191.955 634.478,191.926C634.334,191.897 634.56,191.534 634.759,191.489C634.957,191.444 635.347,191.958 635.41,192.254L635.379,192.521C635.367,192.626 635.13,192.799 635.005,192.794L634.459,192.773C633.863,192.69 633.393,192.758 633.413,192.923C633.433,193.089 634.325,193.175 634.449,193.349C634.574,193.523 634.608,193.852 634.642,193.97C634.676,194.089 634.49,194.509 634.326,194.698L634.152,194.854C633.939,195.043 633.709,195.219 633.483,195.399L633.463,195.416C633.422,195.42 633.398,195.242 633.41,195.021C633.421,194.799 633.011,194.218 632.832,194.332C632.652,194.446 632.195,194.824 632.307,194.946L632.392,195.008L632.501,195.089C632.636,195.164 632.683,195.27 632.604,195.324C632.526,195.378 632.395,195.595 632.489,195.685C632.582,195.775 634.388,196.007 634.26,196.052C634.132,196.097 634.023,196.205 634.292,196.194C634.561,196.184 634.785,196.714 634.87,196.704C634.954,196.693 635.153,196.618 635.125,196.562C635.096,196.504 635.157,196.387 635.327,196.428L635.48,196.464C635.987,196.72 636.224,196.944 636.007,196.962C635.79,196.98 635.17,197.149 635.171,197.293C635.172,197.438 635.413,197.744 635.567,197.926C635.722,198.108 636.539,198.199 636.596,198.146C636.653,198.093 637.032,197.975 637.253,198.055C637.475,198.135 637.976,198.183 637.827,197.965C637.679,197.748 638.394,196.967 638.683,196.6L639.005,196.591L639.475,196.577C639.61,196.313 639.739,196.196 639.761,196.319C639.782,196.442 639.945,196.799 640.046,196.674C640.146,196.549 640.574,196.377 640.799,196.537C641.023,196.697 641.821,197.064 642.071,196.995C642.32,196.926 643.016,196.487 643.535,196.627L644.006,196.742C644.018,196.745 644.06,196.617 644.115,196.569C644.214,196.482 644.342,196.336 644.441,196.345L644.783,196.374C644.702,196.591 644.553,196.872 644.452,196.998C644.352,197.125 644.44,197.711 644.983,197.909L645.268,197.288C645.334,197.144 645.679,197.059 645.915,197.006C646.007,196.986 646.217,197.109 646.263,197.202C646.331,197.343 646.32,197.495 646.551,197.318C646.746,197.168 646.952,197.141 647.079,197.349C647.174,197.504 647.273,197.724 647.207,197.863C647.088,198.115 646.839,198.324 646.655,198.557L646.47,198.792C646.611,199.034 647.022,199.33 647.385,199.45C647.746,199.571 648.499,199.632 648.767,199.63C649.034,199.628 650.117,200.242 650.276,200.454C650.436,200.666 651.281,200.792 651.335,200.848C651.388,200.905 651.38,201.338 651.346,201.785L651.658,202.148L651.775,202.284C651.847,202.469 651.685,202.712 651.417,202.824L651.23,202.995C650.93,203.269 650.958,203.29 650.726,203.142C650.69,203.119 650.665,203.086 650.629,203.065L650.252,202.837C650.091,203.13 649.88,203.203 649.783,202.999C649.687,202.794 648.8,202.75 648.552,202.791C648.303,202.832 647.615,203.07 647.94,203.169C648.267,203.267 648.88,203.634 648.759,203.82L649.013,203.944L649.435,204.15C649.723,203.826 649.97,203.614 649.984,203.679C649.998,203.744 650.224,203.909 650.412,203.943C650.601,203.977 650.374,204.507 650.067,204.57L649.907,204.733L649.729,204.913C649.577,205.228 649.551,205.526 649.672,205.577C649.792,205.626 649.836,205.98 649.525,206.261C649.216,206.542 648.505,207.28 648.602,207.309C648.698,207.338 648.896,207.551 648.765,207.7L648.649,207.704L648.411,207.711C648.175,207.773 647.916,208.034 647.836,208.291L648.099,208.503C648.181,208.569 647.774,209.77 647.659,209.84L647.388,210.006C647.092,210.181 646.847,210.431 646.844,210.563C646.841,210.693 646.475,211.137 646.393,211.313L646.27,211.444L645.995,211.737C646.184,212.039 646.336,212.541 646.335,212.854L646.266,213.134L646.167,213.535C646.526,213.579 646.675,213.726 646.495,213.86C646.315,213.995 645.551,214.378 645.247,214.373L644.933,214.385L644.466,214.403C644.117,214.673 643.73,214.923 643.606,214.958L643.594,214.94C643.319,214.536 643.043,215.116 642.73,214.928C642.471,214.771 642.131,214.694 641.798,214.619L641.765,214.611C641.636,214.865 641.319,214.961 641.061,214.824C640.805,214.687 640.074,215.048 640.014,215.059L639.995,215.041C639.784,214.839 639.458,215.037 639.316,214.962L638.91,214.745C638.564,214.903 637.985,214.889 637.625,214.713L637.254,214.995L637.187,215.045C637.03,215.02 636.431,214.86 635.855,214.69L635.329,215.021L635.243,215.075C635.082,215.053 634.786,215.066 634.585,215.104C634.384,215.142 633.709,214.929 633.546,214.881C633.383,214.833 632.844,214.915 632.678,215.006C632.512,215.097 631.603,214.982 631.228,215.017L630.877,215.038C630.71,215.047 630.481,215.049 630.379,214.97L630.129,214.777C629.894,214.878 629.385,215.05 628.996,215.158L628.646,215.269C628.552,215.299 628.492,215.402 628.416,215.473L628.224,215.652C628.127,215.458 627.95,215.337 627.83,215.384C627.71,215.43 627.34,215.887 627.347,216.269L627.322,216.628L627.317,216.69C626.657,216.687 625.967,216.742 625.784,216.812L625.877,216.741L626.526,216.25C626.517,216.68 626.657,216.998 626.839,216.956C627.019,216.914 627.034,216.445 627.027,216.267C627.02,216.088 626.727,215.604 626.644,215.543C626.561,215.482 626.098,215.782 625.913,215.938C625.728,216.095 626.797,216.861 627.628,217.078L627.861,216.89L628.126,216.676C628.361,216.319 628.823,216.11 629.153,216.213C629.482,216.316 630.292,216.673 630.269,216.42L630.331,216.265L630.355,216.206C630.58,216.193 630.742,216.229 630.715,216.287C630.686,216.345 630.707,216.549 630.843,216.566C630.979,216.583 631.323,216.703 631.285,216.793L631.266,216.792L630.887,216.763C630.563,216.99 630.513,217.229 630.773,217.295L630.863,217.231L631.237,216.964C631.685,216.973 632.235,217.034 632.459,217.101C632.684,217.167 633.218,216.807 633.319,216.781L633.381,216.809L633.615,216.917C633.849,217.039 634.239,217.078 634.484,217.003L634.723,217.18C634.796,217.234 635.016,217.157 635.17,217.145L635.264,217.138C635.367,217.137 635.452,217.235 635.452,217.355L635.452,217.611C635.452,217.772 635.293,218.11 635.099,218.362L634.689,218.348L634.252,218.333C633.644,218.339 633.718,218.666 634.415,219.057L635.15,219.01L635.456,218.99C635.616,218.806 635.911,218.621 636.113,218.579L636.191,218.636L636.425,218.806C636.445,219.158 636.578,219.555 636.719,219.688L636.919,219.653C636.99,219.641 637.076,219.48 637.06,219.4L637.047,219.333C636.914,219.273 636.63,219.281 636.415,219.349L636.144,219.277C635.97,219.231 635.768,219.443 635.393,219.346L634.888,219.216C634.226,219.352 633.493,219.674 633.259,219.934L633.562,220.211L633.639,220.281C633.797,220.328 634.305,220.079 634.767,219.727L635.396,219.95L636.441,220.512L636.899,220.054C636.659,219.719 636.579,219.296 636.722,219.114C636.864,218.932 637.393,218.585 637.686,218.871L637.826,219.083C637.882,219.168 637.814,219.341 637.738,219.441L637.637,219.574C637.518,220.082 637.69,220.453 638.019,220.397C638.349,220.343 638.866,221.061 638.722,221.161C638.577,221.26 638.143,221.665 638.411,221.606C638.681,221.548 641.352,221.233 641.762,221.075C642.172,220.917 641.62,220.815 641.07,220.889L640.609,221.078L640.472,221.135C640.296,221.158 640.176,221.13 640.205,221.073C640.234,221.017 640.172,220.813 640,220.747L639.971,220.775C639.784,220.952 639.641,221.159 639.469,221.348L639.339,221.491C639.481,221.682 639.824,221.906 640.099,221.989C640.374,222.072 640.918,221.504 640.992,221.439C641.067,221.375 641.319,221.472 641.367,221.805L641.877,221.599L642.165,221.482C641.533,221.416 640.6,221.25 640.091,221.114C639.582,220.978 639.623,220.526 639.755,220.395C639.887,220.264 640.248,219.926 640.275,219.938L640.287,219.969C640.359,220.16 640.356,220.469 640.502,220.524L640.907,220.679C640.928,220.392 641.017,220.085 641.106,219.999C641.195,219.912 642.382,220.107 643.21,220.271L643.974,219.914L644.236,219.791C644.189,220.007 644.239,220.246 644.347,220.322C644.454,220.398 644.864,220.548 644.893,220.397C644.92,220.246 645.248,219.993 645.576,220.08C645.905,220.168 645.634,220.961 645.79,221.106C645.947,221.251 646.9,221.317 647.661,221.022L648.346,220.811L648.432,220.785C648.654,221.012 648.892,221.157 648.957,221.108C649.023,221.058 649.207,220.897 649.225,220.854L649.215,220.849L648.936,220.69C648.623,220.526 648.232,220.401 648.066,220.414L647.912,220.425C647.817,220.433 647.698,220.462 647.63,220.428C647.018,220.128 647.1,220.495 647.084,220.788L647.08,220.849C647.022,220.915 646.965,220.843 646.952,220.689C646.939,220.536 646.352,220.453 646.273,220.354L646.293,220.271C646.309,220.205 646.497,220.097 646.555,220.116C646.896,220.229 647.198,219.767 647.58,220.083L647.628,220.123C648.018,219.901 648.386,219.842 648.447,219.991L648.584,220.083L648.646,220.126C648.855,220.031 649.165,219.879 649.334,219.787C649.503,219.695 650.101,219.523 650.174,219.675C650.246,219.827 650.498,220.242 650.55,220.216L650.637,220.193L651.155,220.062C651.72,219.91 652.434,219.867 652.742,219.965L652.74,219.991C652.711,220.368 652.981,220.793 652.511,221.117C652.472,221.144 652.536,221.342 652.616,221.391C652.689,221.435 652.912,221.42 652.96,221.367C653.105,221.205 653.191,221.007 653.316,220.831L653.389,220.729C653.496,220.628 653.619,220.649 653.664,220.776C653.708,220.902 653.959,221.259 654.082,221.303C654.204,221.348 654.607,221.276 654.71,221.354C654.813,221.432 655.135,221.592 655.169,221.516C655.203,221.44 655.385,221.314 655.482,221.434C655.58,221.554 656.14,221.718 656.417,221.418L656.721,221.23L656.739,221.218C656.934,221.389 657.014,221.598 656.918,221.681C656.822,221.765 656.641,222.046 656.792,222.065C656.943,222.084 657.368,222.247 657.309,222.371C657.249,222.495 657.227,222.91 657.433,222.936C657.639,222.961 657.831,223.231 657.32,223.467L656.909,223.683C656.768,223.757 656.626,223.88 656.574,224.005C656.522,224.13 656.524,224.326 656.615,224.417C656.697,224.499 656.955,224.537 657.093,224.497L657.38,224.415C657.381,224.168 657.454,223.883 657.543,223.781L657.652,223.738C657.98,223.609 658.944,223.969 658.979,224.243L658.989,224.323C658.834,224.426 658.533,224.614 658.32,224.742C658.106,224.869 657.639,225.336 657.625,225.39C657.611,225.443 657.443,225.44 657.284,225.224L657.116,225.194L656.969,225.167C656.716,225.341 656.62,225.548 656.757,225.628C656.893,225.708 657.363,226.412 657.352,226.933L657.377,227.472L657.404,228.067C656.837,228.414 656.352,228.606 656.327,228.496C656.302,228.385 656.122,228.167 655.985,228.259C655.848,228.351 655.921,228.867 655.779,228.886C655.638,228.906 655.296,229.134 655.479,229.331L655.618,229.331C655.852,229.332 656.078,229.173 656.319,229.142C656.502,229.118 656.818,229.036 656.819,229.328C656.82,229.482 656.756,229.735 656.636,229.774L656.218,229.912C655.785,229.985 655.461,229.689 655.498,229.253L654.845,229.368L654.329,229.459C654.541,229.853 654.519,230.187 654.281,230.2C654.044,230.213 653.36,230.153 653.338,230.035C653.315,229.916 653.121,229.71 652.965,229.876C652.808,230.042 652.309,230.437 652.28,230.303C652.251,230.17 652.06,229.826 651.943,229.952C651.826,230.078 651.07,230.389 650.551,230.337L650.189,230.518L649.804,230.709C649.432,230.685 648.794,230.688 648.387,230.715L648.012,230.697L647.887,230.691C647.746,230.737 647.287,230.715 646.866,230.641C646.445,230.566 645.262,230.82 645.163,230.776C645.065,230.731 644.598,230.671 644.355,230.65C644.112,230.629 643.49,230.679 643.304,230.567C643.118,230.455 642.347,230.944 641.984,231.081L641.92,230.563L641.898,230.394C641.643,230.497 641.297,230.635 641.129,230.699C640.961,230.764 640.652,230.992 640.55,230.852C640.447,230.712 639.652,230.888 639.427,230.916C639.201,230.943 638.539,230.831 638.404,230.783C638.269,230.735 637.876,231.003 637.793,231.068C637.709,231.132 637.296,231.014 637.188,230.974C637.08,230.935 636.499,231.025 636.144,231.178C635.79,231.331 634.516,230.913 634.133,230.885C633.751,230.858 632.765,231.337 632.598,231.362C632.431,231.388 631.8,231.313 631.549,231.537L631.092,231.246C630.897,231.122 630.417,231.325 630.066,231.323C629.774,231.322 629.483,231.208 629.19,231.202C628.973,231.198 628.749,231.278 628.533,231.334L628.036,231.463C628.006,231.163 628.007,231.076 628.039,231.271C628.071,231.465 627.239,231.242 626.946,231.341L626.684,231.32L625.595,231.231C624.394,231.167 623.065,231.136 622.643,231.164C622.219,231.191 621.066,231.454 620.98,231.493C620.895,231.531 620.479,231.587 620.076,231.64L619.967,231.534C619.618,231.196 619.229,231.545 619.004,231.447L618.6,231.272C618.183,231.313 617.658,231.308 617.434,231.261C617.21,231.214 616.291,231.552 615.779,231.616L615.287,231.373L615.009,231.236C614.537,231.34 614.016,231.378 613.851,231.32C613.686,231.262 613.288,231.439 613.194,231.333C613.101,231.226 612.677,231.02 612.47,231.122C612.263,231.225 611.508,231.487 611.302,231.503C611.096,231.521 610.536,231.42 610.372,231.346C610.207,231.272 609.278,231.546 608.722,231.663C608.165,231.778 606.603,231.482 606.481,231.581C606.359,231.68 605.852,231.429 605.726,231.404C605.6,231.379 605.264,231.469 605.211,231.394C605.158,231.319 604.967,231.173 604.918,231.257C604.87,231.341 604.521,231.477 604.269,231.342C604.018,231.207 603.146,231.561 602.937,231.584L602.814,231.514C602.361,231.254 601.97,231.264 601.509,231.521C601.117,231.741 600.701,231.206 600.447,231.36C600.062,231.593 599.642,231.634 599.339,231.516C599.075,231.414 598.967,231.442 598.739,231.505C598.59,231.545 598.227,231.362 598.211,231.386C598.009,231.704 597.775,231.261 597.621,231.408C597.457,231.564 597.389,231.494 597.225,231.399L596.895,231.209C596.473,231.269 595.574,231.386 594.897,231.47C594.221,231.553 591.885,231.478 591.596,231.54L591.33,231.546L590.564,231.564C589.726,231.542 588.88,231.617 588.685,231.731C588.491,231.847 587.486,231.642 587.072,231.575L586.686,231.558C586.236,231.537 585.784,231.547 585.334,231.555L585.043,231.56C584.936,231.375 584.807,231.226 584.758,231.229C584.708,231.232 584.465,231.304 584.327,231.381C584.189,231.458 583.763,231.681 583.617,231.595C583.472,231.509 582.511,231.736 581.833,231.716C581.156,231.696 579.18,231.523 578.936,231.486C578.69,231.45 577.931,231.659 577.753,231.537C577.576,231.415 576.713,231.702 576.479,231.72C576.244,231.738 575.365,231.801 575.063,231.835C574.763,231.87 573.876,231.603 573.658,231.664C573.439,231.726 572.637,231.735 572.419,231.669C572.201,231.604 571.167,231.729 570.719,231.71L570.291,231.603L569.949,231.518C569.392,231.663 568.347,231.78 567.627,231.779C566.908,231.778 564.571,231.841 564.032,231.928L563.872,231.356L563.859,231.312C563.491,231.319 563.229,231.387 563.275,231.463C563.322,231.539 563.279,231.769 563.05,231.763C562.82,231.758 561.958,231.863 561.613,231.967L561.231,231.794L561.016,231.696C560.876,231.556 560.666,231.436 560.549,231.429L560.5,231.469C560.396,231.553 560.312,231.767 560.256,231.758L559.181,231.602C558.003,231.799 557.022,231.847 557.004,231.708C556.984,231.568 556.723,231.245 556.471,231.342L556.264,231.319C555.81,231.27 555.989,231.643 555.803,231.716C555.62,231.789 555.37,231.74 555.158,231.777C554.914,231.82 554.685,231.923 554.44,231.953L554.295,231.971C554.121,231.916 553.789,231.83 553.556,231.779C553.323,231.728 552.712,231.85 552.568,231.907C552.426,231.964 551.756,231.842 551.541,231.896C551.325,231.95 550.25,231.997 549.638,232.144L549.096,231.786C548.963,231.699 548.593,231.707 548.451,231.796L547.998,232.083C547.526,231.942 546.885,231.793 546.573,231.753L546.536,231.818C546.257,232.302 545.883,231.673 545.562,231.903L545.252,232.123C544.91,231.95 544.254,231.74 543.794,231.657L543.357,231.919L543.05,232.103C542.814,231.81 542.348,231.627 542.013,231.698L541.914,231.833C541.684,232.144 541.503,231.691 541.319,231.849L541.262,231.897C541.19,231.939 540.805,231.911 540.404,231.834C540.005,231.757 537.815,231.998 537.696,232.021L537.655,231.988C537.378,231.759 537.026,231.637 536.732,231.862C536.368,232.139 536.292,231.625 535.943,231.747L535.677,231.839C535.286,231.703 534.44,231.658 533.796,231.74L533.205,231.767C532.855,231.783 532.284,231.837 532.191,231.702L531.939,231.333C531.677,231.492 531.382,231.614 531.285,231.604C531.188,231.593 530.791,231.62 530.499,231.579L530.249,231.57C530.021,231.562 529.786,231.709 529.546,231.761L529.516,231.767C529.436,231.633 529.278,231.461 529.166,231.384C529.053,231.307 528.78,231.631 528.687,231.794L528.422,231.774L528.092,231.75C527.728,231.763 527.095,231.801 526.685,231.835L526.299,231.784L525.912,231.733C525.47,231.755 525.087,231.67 525.062,231.545C525.036,231.42 524.956,231.115 524.935,231.115C524.912,231.114 524.83,231.213 524.8,231.335C524.771,231.458 524.529,231.79 524.34,231.756L524.274,231.688C523.913,231.311 523.922,231.306 523.418,231.639L523.362,231.675C523.302,231.71 522.836,231.773 522.325,231.814C521.814,231.856 520.479,231.427 520.322,231.514C520.166,231.601 519.864,231.422 520.008,231.304C520.153,231.187 520.422,230.845 520.153,230.912C519.885,230.979 519.276,231.394 519.172,231.538L519.081,231.537C518.882,231.535 518.685,231.407 518.486,231.404C518.31,231.402 518.135,231.527 517.951,231.545C517.736,231.566 517.478,231.587 517.297,231.512L516.669,231.249C516,231.398 515.258,231.53 515.021,231.543L514.828,231.488C514.515,231.397 513.801,231.246 513.513,231.341L512.919,231.538C512.382,231.315 511.873,231.237 511.788,231.366C511.704,231.495 510.406,231.36 509.628,231.335L508.907,231.332L508.369,231.33C507.785,231.305 506.888,231.379 506.374,231.495L505.879,231.346C505.608,231.264 504.904,231.083 504.689,230.974C504.582,230.918 504.26,230.955 504.255,230.979C504.169,231.414 503.961,231.48 503.582,231.158L503.555,231.135C503.509,231.124 503.046,231.22 502.527,231.348L502.129,231.256C501.642,231.142 501.265,231.015 500.814,231.313C500.699,231.388 500.401,231.294 500.193,231.256L500.032,231.227C499.863,231.167 499.571,231.205 499.382,231.312C499.193,231.418 498.329,231.235 498.097,231.208C497.864,231.182 496.841,231.18 496.346,231.266L495.982,230.928C495.974,230.92 495.866,231.003 495.798,231.014L494.68,231.197C494.076,231.063 493.503,230.949 493.404,230.942C493.307,230.936 492.521,231 491.775,231.002L491.038,231.101C490.914,230.866 490.772,230.797 490.724,230.948C490.674,231.1 489.556,231.199 488.872,231.294L488.326,230.901L488.28,230.868C488.118,230.938 487.669,231.003 487.282,231.01L486.933,230.901C486.644,230.812 486.408,231.362 486.025,230.981C485.962,230.919 485.729,230.962 485.576,230.97C485.479,230.975 485.381,231.029 485.29,231.019L485.133,231.002C484.974,230.96 484.556,231.005 484.204,231.103L483.99,230.838C483.696,230.475 483.476,231.067 483.119,230.836C482.758,230.603 482.956,230.273 482.737,230.079C482.636,229.987 482.289,229.981 482.129,230.05L481.806,230.19C481.488,230.416 481.297,230.622 481.38,230.646C481.463,230.67 481.407,230.801 481.038,230.872L480.702,230.813C480.498,230.777 480.296,230.671 480.099,230.681L479.483,230.712C479.111,230.349 478.807,230.161 478.807,230.296C478.807,230.431 478.51,230.96 478.146,230.949C477.783,230.938 476.971,230.507 476.925,230.573L476.871,230.626L476.778,230.718C476.675,230.807 476.277,230.854 475.896,230.824C475.516,230.792 474.431,230.576 474.308,230.479C474.185,230.383 473.809,230.372 473.792,230.52C473.776,230.667 473.24,230.67 473.213,230.666C473.185,230.661 473.1,230.385 473.063,230.03L472.494,230.366C472.232,230.52 471.888,230.59 471.569,230.665L471.405,230.704C471.138,230.687 470.918,230.513 470.915,230.318L470.921,230.148C470.926,229.96 470.94,229.761 470.603,229.795C470.251,229.831 470.421,230.069 470.377,230.224L470.357,230.289C470.291,230.422 470.169,230.439 470.088,230.328C470.007,230.217 469.606,230.086 469.431,230.353L469.29,230.516C469.228,230.587 469.094,230.665 469,230.659L468.913,230.654C468.833,230.557 468.717,230.333 468.657,230.158C468.597,229.983 468.074,229.904 468.188,229.959C468.302,230.016 468.158,230.451 467.616,230.803L467.135,230.362L466.944,230.188C466.749,230.269 466.439,230.421 466.256,230.527C466.072,230.632 465.12,230.275 465.035,230.236L464.958,230.237L464.881,230.239C464.798,230.28 464.761,230.35 464.799,230.394C464.836,230.438 464.492,230.684 463.903,230.789L463.587,230.635L463.097,230.397C462.628,230.486 462.286,230.47 462.338,230.363C462.39,230.255 462.102,229.648 461.546,229.331L460.811,229.724L460.359,229.964C459.619,229.749 459.18,229.586 459.384,229.603L459.401,229.566L459.612,229.116C460.067,229.209 460.497,229.303 460.566,229.324C460.636,229.346 460.688,228.969 460.198,229.006L459.93,228.847L459.338,228.495C459.159,228.845 458.998,229.07 458.98,228.995C458.963,228.92 458.797,228.7 458.649,228.671C458.502,228.642 458.173,228.918 458.138,228.992C458.102,229.065 457.766,229.355 457.533,229.531C457.302,229.706 456.95,230.542 456.915,230.375C456.88,230.208 456.665,229.798 456.509,229.807C456.353,229.815 455.84,229.748 455.728,229.707C455.614,229.666 455.339,229.773 455.488,229.844C455.638,229.915 456.034,230.183 456.054,230.262L456.027,230.326C456.011,230.367 455.901,230.422 455.858,230.411L455.583,230.336C455.226,230.219 454.933,230.015 454.933,229.881C454.933,229.748 454.798,229.379 454.633,229.433C454.469,229.486 454.337,229.999 454.275,230.144C454.215,230.289 453.598,230.217 453.536,230.198C453.476,230.179 453.336,229.823 453.521,229.499C453.704,229.174 453.777,228.518 453.508,228.839C453.238,229.16 452.402,229.888 452.228,229.77C452.053,229.65 451.665,230.033 451.585,230.168C451.506,230.303 450.833,230.349 450.726,230.179C450.617,230.01 451.489,229.706 451.72,229.624C451.95,229.542 452.615,229.294 452.667,229.215C452.719,229.137 452.764,228.838 452.741,228.745L452.693,228.734C452.58,228.71 452.392,228.691 452.341,228.741L452.153,228.926C451.98,229.151 451.787,229.328 451.723,229.318C451.659,229.31 451.476,229.184 451.465,229.063C451.454,228.943 451.187,228.569 451.093,228.461C450.999,228.353 450.697,228.1 450.632,228.14C450.566,228.18 450.201,228.426 450.005,228.647L450.232,228.66L450.751,228.689C450.971,228.986 451.152,229.261 451.155,229.301C451.158,229.34 450.989,229.531 450.767,229.545L450.566,229.574L450.402,229.598C450.229,229.647 450.027,229.72 449.956,229.76C449.885,229.799 449.606,229.641 449.502,229.72C449.398,229.798 449.076,229.853 448.984,229.688C448.894,229.524 448.368,229.148 448.089,229.343L447.897,229.478L447.695,229.621C447.533,229.51 447.153,229.301 446.853,229.158L446.664,228.92L446.476,228.682C446.18,228.831 445.807,229.012 445.646,229.085L445.563,229.186L445.397,229.383C445.238,229.647 444.864,229.783 444.567,229.685C444.271,229.587 443.754,229.191 443.558,229.137C443.362,229.084 442.897,229.047 442.978,229.265L442.91,229.327C442.78,229.446 442.537,229.478 442.38,229.584L442.34,229.611C442.419,229.761 442.414,229.912 442.33,229.946C442.247,229.98 442.001,229.851 441.916,229.7C441.831,229.549 441.104,229.139 440.541,229.213L440.593,229.842C440.607,230.019 439.961,230.1 439.846,229.927C439.729,229.752 439.77,229.596 440.095,229.558C440.192,229.546 440.356,229.332 440.323,229.271L440.188,229.02C440.072,229.181 439.698,229.284 439.358,229.25C439.018,229.215 438.109,229.518 437.993,229.463L437.875,229.443C437.726,229.417 437.524,229.374 437.422,229.43L437.003,229.658C436.569,229.525 436.145,229.399 436.06,229.376C435.975,229.354 435.563,229.4 435.197,229.43L434.91,229.233L434.818,229.17C434.64,229.119 434.465,229.188 434.43,229.323C434.396,229.458 433.986,229.913 433.629,229.923C433.271,229.933 432.301,229.871 432.264,229.935L432.221,229.993L432.167,230.064C432.101,230.138 432.022,230.141 431.993,230.069L431.949,230.012L431.835,229.865C431.712,229.72 431.322,229.756 430.97,229.945L430.924,229.906L430.593,229.626C430.361,229.807 430.063,229.916 429.929,229.868C429.796,229.82 429.184,229.912 428.933,229.823C428.681,229.734 427.843,230.04 427.631,230.087C427.42,230.134 426.745,229.941 426.458,230.09L426.116,229.808L425.861,229.598C425.439,229.741 424.813,229.86 424.47,229.862L424.169,230.007L423.86,230.155C423.54,230.032 423.12,229.798 422.927,229.635L422.674,229.937C422.454,230.199 422.239,229.81 422.027,229.809C421.794,229.807 421.441,230.054 421.349,229.991C420.994,229.749 420.607,229.773 420.223,229.798C419.757,229.829 419.235,229.628 418.834,229.996L418.793,230.034C418.675,230.019 418.409,229.945 418.203,229.868C417.997,229.791 417.115,229.694 416.699,229.826L416.346,229.774C415.605,229.667 414.878,229.48 414.165,229.282C414.009,229.238 413.943,228.999 413.815,228.863C413.748,228.791 413.633,228.698 413.544,228.701C413.37,228.708 413.179,228.832 413.034,228.797L412.934,228.773C412.877,228.593 412.619,228.386 412.362,228.313C412.105,228.24 411.336,228.346 411.157,228.375L410.983,228.264C410.615,228.029 410.16,227.971 409.411,227.972C409.348,227.972 409.201,227.745 409.233,227.709C409.395,227.535 409.694,227.408 409.121,227.353C408.86,227.327 408.886,227.087 409.08,226.938L409.176,226.864C409.269,226.776 409.283,226.595 409.209,226.463C409.136,226.331 409.516,226.144 409.657,226.246C409.8,226.349 410.343,226.188 410.487,226.299L410.563,226.423C410.616,226.512 410.539,226.649 410.583,226.746C410.618,226.822 410.738,226.89 410.84,226.922L410.896,226.94C410.988,226.893 411.193,226.699 411.353,226.511C411.511,226.323 411.875,225.654 411.783,225.48C411.692,225.307 410.876,225.461 410.648,225.397L410.62,225.296L410.543,225.02C410.362,224.762 410.138,224.66 410.045,224.792C409.951,224.924 409.831,225.488 409.598,225.282C409.364,225.076 408.373,224.773 408.222,224.651C408.069,224.53 408.488,224.102 408.684,224.231C408.879,224.361 409.469,224.657 409.562,224.601C409.654,224.544 409.853,224.205 409.985,223.986L410.337,224.192C410.442,224.253 410.731,224.264 410.773,224.211C410.903,224.051 410.879,223.928 410.577,223.828L410.354,223.753C410.155,223.474 410.156,223.16 410.357,223.056L410.477,222.916L410.546,222.835C410.501,222.678 410.383,222.511 410.283,222.466C410.185,222.42 409.592,222.125 409.125,222.052L409.018,222.397L408.846,222.948C408.365,222.811 408.091,222.653 408.237,222.597C408.383,222.542 408.646,222.387 408.59,222.343C408.534,222.298 408.223,222.042 408.015,221.869L407.816,221.719L407.641,221.586C407.412,221.649 407.035,221.6 406.803,221.478L406.564,221.437C406.306,221.392 406.026,221.427 405.756,221.427C405.305,221.427 404.842,221.375 404.406,221.441C403.983,221.506 403.657,221.237 403.227,221.324C403.013,221.367 402.709,221.226 402.489,221.112L402.188,220.957C401.833,220.957 401.178,220.903 400.73,220.836C400.283,220.77 398.791,220.137 398.275,219.988L397.788,219.891L397.457,219.825C397.08,219.794 396.592,219.72 396.373,219.66L396.168,219.556L395.344,219.142C395.477,218.689 395.66,218.142 395.753,217.925L395.14,218.021C394.838,218.068 394.678,217.932 394.743,217.684L394.787,217.515C394.838,217.331 394.806,217.106 394.715,217.016C394.625,216.926 394.405,216.628 394.525,216.572C394.645,216.515 395.083,216.22 395.25,216.045L394.91,215.942C394.627,215.856 394.509,215.736 394.646,215.58L394.892,215.302C394.659,215.158 394.286,214.478 394.063,213.791L393.555,213.249L393.435,213.12C393.638,212.751 393.686,212.436 393.541,212.418C393.396,212.401 393.178,212.231 393.359,212.078C393.541,211.925 393.364,211.387 393.497,211.356C393.63,211.325 393.994,211.005 393.887,210.741L393.796,210.495C393.7,210.233 393.509,209.956 393.554,209.709C393.6,209.46 393.842,209.203 394.08,209.021C394.24,208.898 394.671,208.958 394.755,208.834L394.933,208.574C395.189,208.606 395.517,208.642 395.661,208.652C395.805,208.662 396.486,208.048 396.622,208.101C396.758,208.152 397.553,207.903 397.834,207.887L398.105,207.801C398.316,207.735 398.705,207.983 398.875,207.9C399.166,207.76 399.296,207.783 399.561,207.925C399.723,208.011 400.072,207.972 400.271,207.887L400.859,207.633C400.8,207.93 401.214,207.833 401.78,207.417L402.612,207.547L402.746,207.568C402.921,207.47 403.159,207.431 403.274,207.481C403.391,207.531 404.058,207.501 404.536,207.146L405.215,207.458C405.426,207.555 405.976,207.271 406.094,207.374L406.471,207.698C406.757,207.516 407.271,207.238 407.611,207.08L407.902,207.021C408.2,206.962 408.608,206.961 408.922,207.014C409.443,207.102 409.895,207.206 410.401,206.945L410.797,206.742C411.327,206.72 411.808,206.771 411.864,206.857L411.928,206.929L412.053,207.07C412.201,207.226 412.457,207.159 412.62,206.922C412.784,206.685 413.951,206.882 414.329,206.905C414.706,206.928 415.822,206.467 416.108,206.45L416.376,206.459C416.997,206.481 417.317,206.46 417.592,206.361C417.706,206.32 417.825,206.237 417.933,206.247L418.138,206.265C418.32,206.183 418.691,206.059 418.964,205.988L419.192,206.037L419.38,206.076C419.551,206.271 419.68,206.203 419.668,205.924L420.194,206.001C420.513,206.048 420.911,206.135 421.196,205.859C421.215,205.841 421.372,205.877 421.374,205.896C421.396,206.079 421.411,206.304 421.719,206.221C421.862,206.182 421.895,205.898 422.043,205.842C422.382,205.715 422.76,205.602 423.125,205.593L423.549,205.582C424.031,205.634 424.582,205.62 424.773,205.55C424.965,205.48 425.641,205.389 425.816,205.407C425.992,205.425 426.568,205.443 426.638,205.386C426.708,205.329 426.998,205.171 427.024,205.244C427.051,205.317 427.296,205.485 427.493,205.407C427.689,205.329 428.335,205.186 428.457,205.275C428.578,205.364 429.063,205.597 429.185,205.536C429.306,205.474 429.549,205.172 429.682,205.028C429.815,204.884 430.454,204.958 430.68,204.895L430.912,204.891L431.201,204.885C431.535,204.877 432.098,204.93 432.451,205.001L432.788,205.042C432.878,205.053 432.994,205.031 433.071,204.991L433.803,204.612C434.241,204.888 434.616,205.02 434.638,204.905C434.659,204.79 434.885,204.487 435.076,204.571L435.227,204.603L435.373,204.633C435.546,204.631 435.857,204.466 436.066,204.265L436.417,204.239L436.556,204.228C436.706,204.059 436.691,203.798 436.522,203.65L436.339,203.607C436.027,203.536 436.043,203.756 435.976,203.93C435.949,203.999 435.673,204.009 435.508,204.035C435.152,204.09 434.703,204.27 434.458,204.158C434.052,203.972 433.678,204.073 433.297,204.043C432.895,204.012 432.485,204.036 432.08,204.036C431.674,204.036 431.263,204.003 430.863,204.044C430.291,204.102 430.093,203.721 429.799,203.479L429.457,203.197C429.088,203.198 428.625,203.249 428.429,203.31C428.231,203.371 427.926,203.39 427.775,203.41C427.624,203.429 427.134,203.139 426.982,203.051C426.832,202.963 426.232,202.771 426.123,202.884L426.049,203.009C425.934,203.202 425.945,203.205 426.333,203.214C426.397,203.216 426.517,203.243 426.517,203.253C426.508,203.354 426.499,203.532 426.454,203.539C426.189,203.583 425.803,203.779 425.744,203.372L425.715,203.165C425.777,202.91 425.85,202.65 425.874,202.589C425.899,202.527 425.877,202.379 425.772,202.406L425.676,202.426C425.553,202.451 425.429,202.473 425.305,202.495L424.818,202.582C425.014,202.831 424.915,203.155 424.598,203.3C424.281,203.446 423.319,203.442 423.308,203.331L423.333,203.236L423.376,203.082C423.449,202.917 423.41,202.791 423.288,202.802C423.167,202.813 422.789,202.574 422.837,202.236L422.737,202.205L421.807,201.916C421.992,201.286 422.374,200.825 422.656,200.892L422.86,200.957C423.054,201.018 423.23,201.122 423.429,201.165C423.535,201.188 423.694,201.149 423.787,201.092L424.021,200.95C424.316,200.931 424.711,200.784 424.898,200.624L424.888,200.487L424.876,200.343C424.668,200.205 424.295,200.086 424.045,200.08L423.883,200.167C423.75,200.239 423.876,200.582 423.542,200.5L423.308,200.443C423.076,200.263 422.808,200.255 422.711,200.426C422.614,200.597 422.038,200.404 422.064,200.35C422.092,200.296 422.085,200.111 421.963,200.111C421.841,200.111 421.451,200.192 421.429,200.292C421.406,200.391 421.264,200.679 421.171,200.669L421.153,200.637C421.102,200.545 421.115,200.422 421.045,200.346L420.767,200.039C420.303,200.056 419.867,200.065 419.798,200.059C419.729,200.053 419.624,199.664 419.973,199.236L420.467,199.475L420.847,199.659C421.271,199.648 421.625,199.484 421.636,199.295C421.646,199.105 421.569,198.568 421.437,198.568C421.304,198.568 420.941,198.655 421.065,198.76L421.102,198.853L421.137,198.942C421.104,199.087 420.881,199.156 420.638,199.096C420.396,199.035 419.988,198.795 420.273,198.697L420.283,198.602C420.298,198.463 420.12,198.295 419.979,198.173C419.949,198.146 419.727,198.31 419.603,198.3C419.473,198.29 419.341,198.186 419.244,198.099C419.226,198.082 419.357,197.947 419.433,197.875L419.451,197.857C419.513,197.866 419.932,197.934 420.382,198.008C420.831,198.083 422.039,197.725 422.157,197.801L422.26,197.793C422.394,197.782 422.523,197.695 422.64,197.624C422.675,197.603 422.684,197.515 422.659,197.476L422.622,197.415C422.547,197.361 422.586,197.275 422.709,197.224C422.832,197.172 423.258,197.083 423.352,197.154C423.444,197.225 423.779,197.365 423.869,197.292C423.958,197.22 424.339,197.172 424.479,197.377C424.619,197.583 425.01,198.115 425.037,198.108C425.064,198.101 425.062,197.764 424.97,197.374L424.932,197.017L424.924,196.942C425.094,196.849 425.313,196.832 425.411,196.904L425.451,196.986L425.556,197.206C425.666,197.506 425.905,197.437 426.085,197.051L426.328,196.862L426.612,196.641C426.755,196.353 426.916,196.173 426.97,196.242C427.023,196.311 427.407,196.542 427.655,196.542L427.88,196.638L428.094,196.73C428.43,196.78 428.704,196.709 428.704,196.571C428.704,196.434 428.799,196.159 428.914,196.218L429.025,196.261C429.284,196.361 429.544,196.517 429.809,196.525C429.939,196.53 430.076,196.143 430.223,196.137L430.487,196.125C430.801,196.131 431.13,196.171 431.218,196.213C431.307,196.254 431.665,196.176 431.646,195.879L431.689,195.677L431.739,195.449C431.856,195.208 432.421,195.16 432.995,195.343L433.65,194.842C434.042,194.542 434.371,194.022 435.06,194.53L435.081,194.546C435.375,194.322 435.747,194.258 435.907,194.404L436.085,194.509L436.171,194.56C436.313,194.553 436.593,194.545 436.795,194.542C436.996,194.54 437.628,194.293 437.877,194.23C438.126,194.168 439.045,194.131 439.355,194.121C439.665,194.11 440.384,193.744 440.557,193.88C440.73,194.017 441.125,194.435 441.092,194.539C441.059,194.643 441.147,195.002 441.4,194.991L441.648,195.015L442.055,195.054C442.303,194.826 442.633,194.467 442.787,194.257C442.942,194.046 443.471,193.525 443.587,193.609L443.681,193.652L444.153,193.872C444.081,194.119 443.889,194.407 443.726,194.513L443.661,194.638L443.61,194.737C443.669,194.885 443.788,194.988 443.874,194.966C443.96,194.944 444.415,194.637 444.772,194.387L445.258,194.572L445.396,194.625C445.536,194.699 445.765,194.565 445.904,194.329C446.045,194.092 446.602,193.515 446.793,193.638L446.979,193.682L447.313,193.76C447.606,193.935 447.974,194.105 448.13,194.138C448.286,194.17 448.272,194.645 448.344,194.72C448.414,194.795 448.682,194.818 448.729,194.917C448.778,195.016 449.17,194.87 449.218,194.711C449.267,194.553 449.929,194.595 450.07,194.625C450.213,194.655 450.752,194.433 451.24,194.535L451.701,194.579L452.136,194.62C452.604,194.725 453.068,194.674 453.166,194.507C453.263,194.34 452.919,193.811 452.969,193.69Z" style="fill:rgb(252,119,83);fill-rule:nonzero;"/>
            <path d="M653.765,220.404C653.514,220.273 653.493,220.137 653.72,220.103C653.945,220.067 654.757,219.611 655.117,219.433L655.23,219.948L655.248,220.024C655.532,220.061 655.9,220.039 656.065,219.975C656.23,219.911 656.91,219.901 657.167,220.122L657.068,220.448C657.053,220.5 656.848,220.527 656.727,220.539C656.688,220.542 656.591,220.444 656.602,220.411C656.637,220.31 656.956,220.25 656.677,220.115L656.602,220.08C656.452,220.143 656.086,220.371 655.79,220.587L655.566,220.813L655.279,221.104C654.907,221.025 654.016,220.536 653.765,220.404Z" style="fill:rgb(252,119,83);fill-rule:nonzero;"/>
            <path d="M452.799,193.358C452.942,193.419 453.019,193.569 452.969,193.69C452.919,193.811 452.534,194.156 452.224,194.188C451.913,194.22 451.116,194.058 450.92,194.057C450.723,194.056 450.277,194.392 450.185,194.444C450.093,194.495 450.038,194.141 450.313,193.615L450.913,193.348L451.02,193.3C451.146,193.277 451.43,193.255 451.65,193.253C451.871,193.251 452.655,193.297 452.799,193.358Z" style="fill:rgb(252,119,83);fill-rule:nonzero;"/>
            <path d="M636.104,218.199C635.746,218.037 635.452,217.838 635.452,217.758C635.452,217.677 635.532,217.421 635.63,217.368C635.727,217.315 636.036,217.113 636.129,217.062C636.221,217.01 636.676,217.164 636.865,217.224C637.056,217.283 637.488,217.345 637.455,217.794L636.895,217.644C636.741,217.602 636.605,217.513 636.45,217.472C636.408,217.461 636.299,217.54 636.271,217.595C636.242,217.655 636.24,217.775 636.283,217.797C636.42,217.869 636.607,217.882 636.725,217.966C636.794,218.015 636.82,218.182 636.769,218.244C636.716,218.31 636.515,218.368 636.436,218.335L636.104,218.199Z" style="fill:rgb(252,119,83);fill-rule:nonzero;"/>
            <path d="M429.243,195.253C429.84,195.241 430.382,195.442 430.447,195.7L429.998,195.667L429.837,195.656C429.666,195.604 429.328,195.537 429.086,195.507C428.845,195.476 428.32,196.034 428.182,196.209C428.044,196.384 427.794,195.773 427.702,195.729C427.611,195.684 427.417,195.486 427.577,195.428C427.737,195.37 428.255,195.116 428.464,195.05L428.756,195.126L429.243,195.253Z" style="fill:rgb(252,119,83);fill-rule:nonzero;"/>
            <path d="M620.537,190.225C620.714,190.053 621.155,190.01 621.517,190.131L621.599,190.066C621.894,189.833 621.939,190.167 622.114,190.169C622.379,190.173 622.644,190.181 622.907,190.208C622.948,190.212 623.012,190.334 622.994,190.385L622.971,190.453C622.884,190.514 622.723,190.504 622.612,190.433C622.502,190.361 622.013,190.569 621.84,190.631L621.81,190.6C621.407,190.189 621.143,190.458 620.849,190.7C620.799,190.741 620.615,190.747 620.578,190.711C620.494,190.629 620.385,190.48 620.425,190.413L620.537,190.225Z" style="fill:rgb(252,119,83);fill-rule:nonzero;"/>
            <path d="M639.105,217.375C639.341,217.483 639.347,217.706 639.118,217.869C638.891,218.032 638.531,218.447 638.437,218.303C638.343,218.158 638.338,217.514 638.546,217.192L638.914,217.312L639.105,217.375Z" style="fill:rgb(252,119,83);fill-rule:nonzero;"/>
            <path d="M421.358,202.215C421.354,202.479 421.12,202.726 420.838,202.763C420.557,202.8 420.22,202.271 420.444,202.284L420.529,202.356C420.699,202.502 420.784,202.467 420.922,202.338C421.036,202.231 421.164,202.172 420.971,202.018L420.892,201.955C420.918,201.791 421.089,201.662 421.271,201.669L421.391,201.733C421.548,201.815 421.759,201.911 421.481,202.122L421.358,202.215Z" style="fill:rgb(252,119,83);fill-rule:nonzero;"/>
            <path d="M431.943,194.738C431.948,194.888 431.86,194.998 431.749,194.982L431.691,195.016C431.51,195.123 431.362,195.336 431.178,195.355L430.905,195.383C430.588,195.299 430.488,195.111 430.686,194.965C430.883,194.82 431.939,194.588 431.943,194.738Z" style="fill:rgb(252,119,83);fill-rule:nonzero;"/>
            <path d="M441.518,194.328C441.342,194.34 441.198,194.223 441.198,194.067C441.198,193.912 441.288,193.479 441.396,193.486C441.506,193.493 441.807,193.61 442.063,193.729C442.321,193.848 442.028,194.456 441.863,194.385L441.69,194.356L441.518,194.328Z" style="fill:rgb(252,119,83);fill-rule:nonzero;"/>
            <path d="M460.273,230.333C460.615,230.334 460.502,230.535 460.021,230.779L459.481,230.659L459.39,230.638C459.338,230.47 459.591,230.202 459.953,230.044L460.013,230.098L460.273,230.333Z" style="fill:rgb(252,119,83);fill-rule:nonzero;"/>
        </g>
    </g>
</svg>
